# xmcd
# 
# Track frame offsets:
#     150
#     18747
#     32950
#     53117
#     70457
#     88855
#     111702
#     131125
#     151087
#     173420
#     202280
#     233795
#     244750
# 
# Disc length: 3279
# 
# Revision: 2
# Processed by: cddbd v1.5.2PL0 Copyright (c) Steve Scherf et al.
# Submitted via: BonkEnc v1.0.15
# 
DISCID=be0ccd0d
DTITLE=Robbie McIntosh - Wide Screen
DYEAR=2001
DGENRE=Blues Rock
TTITLE0=Rat in a hole
TTITLE1=Rocking horse race
TTITLE2=Some make wheels 
TTITLE3=Leap into space
TTITLE4=My secret
TTITLE5=Wide screen
TTITLE6=Seperate tables
TTITLE7=Gravity
TTITLE8=Fire and flame
TTITLE9=No feeling for the blues
TTITLE10=Edge of the same old world
TTITLE11=Special Fried turnip
TTITLE12=No name
EXTD=
EXTT0=
EXTT1=
EXTT2=
EXTT3=
EXTT4=
EXTT5=
EXTT6=
EXTT7=
EXTT8=
EXTT9=
EXTT10=
EXTT11=
EXTT12=
PLAYORDER=
